<svg width="61" height="61" viewBox="0 0 61 61" fill="none" xmlns="http://www.w3.org/2000/svg">
<g id="Container">
<g clip-path="url(#clip0_8313_1267)">
<rect width="61" height="61" rx="8" fill="url(#paint0_linear_8313_1267)"/>
<g id="Icon">
<path id="Vector" d="M34.3455 32.1123L36.2392 42.7698C36.2604 42.8953 36.2428 43.0243 36.1887 43.1395C36.1347 43.2547 36.0467 43.3507 35.9366 43.4146C35.8265 43.4784 35.6996 43.5072 35.5727 43.4969C35.4458 43.4867 35.3251 43.438 35.2267 43.3573L30.7517 39.9986C30.5357 39.8372 30.2732 39.75 30.0036 39.75C29.7339 39.75 29.4715 39.8372 29.2555 39.9986L24.773 43.3561C24.6746 43.4366 24.554 43.4852 24.4273 43.4955C24.3006 43.5057 24.1738 43.4771 24.0638 43.4134C23.9538 43.3497 23.8658 43.254 23.8116 43.139C23.7574 43.024 23.7396 42.8952 23.7605 42.7698L25.653 32.1123" stroke="white" stroke-width="2.5" stroke-linecap="round" stroke-linejoin="round"/>
<path id="Vector_2" d="M30 33.5C34.1421 33.5 37.5 30.1421 37.5 26C37.5 21.8579 34.1421 18.5 30 18.5C25.8579 18.5 22.5 21.8579 22.5 26C22.5 30.1421 25.8579 33.5 30 33.5Z" stroke="white" stroke-width="2.5" stroke-linecap="round" stroke-linejoin="round"/>
</g>
</g>
</g>
<defs>
<linearGradient id="paint0_linear_8313_1267" x1="0" y1="0" x2="61" y2="61" gradientUnits="userSpaceOnUse">
<stop stop-color="#00C950"/>
<stop offset="0.5" stop-color="#009966"/>
<stop offset="1" stop-color="#009689"/>
</linearGradient>
<clipPath id="clip0_8313_1267">
<rect width="61" height="61" rx="8" fill="white"/>
</clipPath>
</defs>
</svg>
