<svg width="32" height="32" viewBox="0 0 32 32" fill="none" xmlns="http://www.w3.org/2000/svg">
<g id="ePrescribe icon" clip-path="url(#clip0_8227_6671)">
<g id="assets%2Fc1dd4445883e49dcb7e2794dbacad44e%2F50e3cdf9b1d64ad98854f471e0cd85a8 fill" clip-path="url(#clip1_8227_6671)">
<g id="assets%2Fc1dd4445883e49dcb7e2794dbacad44e%2F50e3cdf9b1d64ad98854f471e0cd85a8" clip-path="url(#clip2_8227_6671)">
<g id="Clip path group">
<mask id="mask0_8227_6671" style="mask-type:luminance" maskUnits="userSpaceOnUse" x="0" y="0" width="32" height="32">
<g id="a">
<path id="Vector" d="M32 0H0V32H32V0Z" fill="white"/>
</g>
</mask>
<g mask="url(#mask0_8227_6671)">
<g id="Group">
<path id="Vector_2" d="M9.33333 4C7.49479 4 6 5.34531 6 7V25C6 26.6547 7.49479 28 9.33333 28H22.6666C24.5052 28 26 26.6547 26 25V11.5H19.3333C18.4114 11.5 17.6666 10.8297 17.6666 10V4H9.33333ZM19.3333 4V10H26L19.3333 4ZM11.4167 13.1875H15.1667C16.8906 13.1875 18.2916 14.4484 18.2916 16C18.2916 17.1953 17.4635 18.2125 16.2968 18.6203L18.5364 20.5094L20.2969 19.0563C20.7187 18.7047 21.3802 18.7328 21.7708 19.1125C22.1614 19.4922 22.1302 20.0875 21.7083 20.4391L20.0625 21.7984L21.7135 23.1906C22.1354 23.5469 22.1562 24.1375 21.7604 24.5172C21.3646 24.8969 20.7083 24.9156 20.2864 24.5594L18.5208 23.0688L16.7031 24.5688C16.2812 24.9203 15.6198 24.8922 15.2292 24.5125C14.8385 24.1328 14.8698 23.5375 15.2917 23.1859L16.9896 21.7844L13.6146 18.9344C13.5677 18.8969 13.5312 18.8547 13.4948 18.8125H12.4583V20.875C12.4583 21.3906 11.9896 21.8125 11.4167 21.8125C10.8437 21.8125 10.375 21.3906 10.375 20.875V17.875V14.125C10.375 13.6094 10.8437 13.1875 11.4167 13.1875ZM15.1667 16.9375C15.7396 16.9375 16.2083 16.5156 16.2083 16C16.2083 15.4844 15.7396 15.0625 15.1667 15.0625H12.4583V16.9375H15.1667Z" fill="#601B80"/>
</g>
</g>
</g>
</g>
</g>
</g>
<defs>
<clipPath id="clip0_8227_6671">
<rect width="32" height="32" fill="white"/>
</clipPath>
<clipPath id="clip1_8227_6671">
<rect width="32" height="32" fill="white"/>
</clipPath>
<clipPath id="clip2_8227_6671">
<rect width="32" height="32" fill="white"/>
</clipPath>
</defs>
</svg>
