<svg width="32" height="32" viewBox="0 0 32 32" fill="none" xmlns="http://www.w3.org/2000/svg">
<g id="Group appointments icon" clip-path="url(#clip0_8227_6682)">
<g id="assets%2Fc1dd4445883e49dcb7e2794dbacad44e%2F8cf5cca749d04afcb4d3b51410e5ad17 fill" clip-path="url(#clip1_8227_6682)">
<g id="assets%2Fc1dd4445883e49dcb7e2794dbacad44e%2F8cf5cca749d04afcb4d3b51410e5ad17" clip-path="url(#clip2_8227_6682)">
<g id="Clip path group">
<mask id="mask0_8227_6682" style="mask-type:luminance" maskUnits="userSpaceOnUse" x="0" y="0" width="32" height="32">
<g id="a">
<path id="Vector" d="M32 0H0V32H32V0Z" fill="white"/>
</g>
</mask>
<g mask="url(#mask0_8227_6682)">
<g id="Group">
<path id="Vector_2" d="M7.60023 10.8003C7.60023 9.5272 8.10597 8.30621 9.0062 7.40598C9.90643 6.50575 11.1274 6 12.4005 6C13.6737 6 14.8946 6.50575 15.7948 7.40598C16.695 8.30621 17.2008 9.5272 17.2008 10.8003C17.2008 12.0734 16.695 13.2944 15.7948 14.1946C14.8946 15.0949 13.6737 15.6006 12.4005 15.6006C11.1274 15.6006 9.90643 15.0949 9.0062 14.1946C8.10597 13.2944 7.60023 12.0734 7.60023 10.8003ZM4 24.0874C4 20.3934 6.99269 17.4007 10.6867 17.4007H14.1143C17.8083 17.4007 20.801 20.3934 20.801 24.0874C20.801 24.7024 20.3022 25.2012 19.6872 25.2012H5.11382C4.49878 25.2012 4 24.7024 4 24.0874ZM26.8502 25.2012H21.6786C21.8811 24.8487 22.0011 24.4399 22.0011 24.0011V23.7011C22.0011 21.4247 20.9848 19.3808 19.3834 18.0083C19.4734 18.0045 19.5597 18.0008 19.6497 18.0008H21.9523C25.2938 18.0008 28.0015 20.7084 28.0015 24.0499C28.0015 24.6874 27.4839 25.2012 26.8502 25.2012ZM20.201 15.6006C19.0384 15.6006 17.9883 15.1281 17.227 14.3668C17.9658 13.3692 18.4009 12.1354 18.4009 10.8003C18.4009 9.7952 18.1534 8.84643 17.7146 8.01388C18.4121 7.50385 19.2709 7.20008 20.201 7.20008C22.5224 7.20008 24.4012 9.07895 24.4012 11.4003C24.4012 13.7217 22.5224 15.6006 20.201 15.6006Z" fill="#601B80"/>
</g>
</g>
</g>
</g>
</g>
</g>
<defs>
<clipPath id="clip0_8227_6682">
<rect width="32" height="32" fill="white"/>
</clipPath>
<clipPath id="clip1_8227_6682">
<rect width="32" height="32" fill="white"/>
</clipPath>
<clipPath id="clip2_8227_6682">
<rect width="32" height="32" fill="white"/>
</clipPath>
</defs>
</svg>
