<svg width="32" height="32" viewBox="0 0 32 32" fill="none" xmlns="http://www.w3.org/2000/svg">
<g id="Documentation icon" clip-path="url(#clip0_8227_6649)">
<g id="assets%2Fc1dd4445883e49dcb7e2794dbacad44e%2Fabc1f28f89784c18950641cb4f49b6a2 fill" clip-path="url(#clip1_8227_6649)">
<g id="assets%2Fc1dd4445883e49dcb7e2794dbacad44e%2Fabc1f28f89784c18950641cb4f49b6a2" clip-path="url(#clip2_8227_6649)">
<g id="Clip path group">
<mask id="mask0_8227_6649" style="mask-type:luminance" maskUnits="userSpaceOnUse" x="0" y="0" width="32" height="32">
<g id="a">
<path id="Vector" d="M32 0H0V32H32V0Z" fill="white"/>
</g>
</mask>
<g mask="url(#mask0_8227_6649)">
<g id="Group">
<path id="Vector_2" fill-rule="evenodd" clip-rule="evenodd" d="M8.39508 4C7.07231 4 6 5.07231 6 6.39508V25.6049C6 26.9277 7.07231 28 8.39508 28H23.6049C24.9277 28 26 26.9277 26 25.6049V11.2993C26 10.2216 25.5531 9.19215 24.7659 8.45619L21.1211 5.04889C20.4002 4.37492 19.4501 4 18.4632 4H8.39508ZM11.1855 13.2781C10.6929 13.2781 10.2935 13.6774 10.2935 14.1701C10.2935 14.6627 10.6929 15.0621 11.1855 15.0621H20.945C21.4376 15.0621 21.837 14.6627 21.837 14.1701C21.837 13.6774 21.4376 13.2781 20.945 13.2781H11.1855ZM11.1855 17.4916C10.6929 17.4916 10.2935 17.891 10.2935 18.3836C10.2935 18.8763 10.6929 19.2756 11.1855 19.2756H20.945C21.4376 19.2756 21.837 18.8763 21.837 18.3836C21.837 17.891 21.4376 17.4916 20.945 17.4916H11.1855ZM10.2935 22.6785C10.2935 22.1859 10.6929 21.7865 11.1855 21.7865H20.945C21.4376 21.7865 21.837 22.1859 21.837 22.6785C21.837 23.1712 21.4376 23.5706 20.945 23.5706H11.1855C10.6929 23.5706 10.2935 23.1712 10.2935 22.6785Z" fill="#601B80"/>
</g>
</g>
</g>
</g>
</g>
</g>
<defs>
<clipPath id="clip0_8227_6649">
<rect width="32" height="32" fill="white"/>
</clipPath>
<clipPath id="clip1_8227_6649">
<rect width="32" height="32" fill="white"/>
</clipPath>
<clipPath id="clip2_8227_6649">
<rect width="32" height="32" fill="white"/>
</clipPath>
</defs>
</svg>
