<svg width="32" height="32" viewBox="0 0 32 32" fill="none" xmlns="http://www.w3.org/2000/svg">
<g id="Client Portal icon" clip-path="url(#clip0_8227_6627)">
<g id="assets%2Fc1dd4445883e49dcb7e2794dbacad44e%2F5ff6aa95b9bb41389db6d8d9bfecf461 fill" clip-path="url(#clip1_8227_6627)">
<g id="assets%2Fc1dd4445883e49dcb7e2794dbacad44e%2F5ff6aa95b9bb41389db6d8d9bfecf461" clip-path="url(#clip2_8227_6627)">
<g id="Clip path group">
<mask id="mask0_8227_6627" style="mask-type:luminance" maskUnits="userSpaceOnUse" x="0" y="0" width="32" height="32">
<g id="a">
<path id="Vector" d="M32 0H0V32H32V0Z" fill="white"/>
</g>
</mask>
<g mask="url(#mask0_8227_6627)">
<g id="Group">
<path id="Vector_2" fill-rule="evenodd" clip-rule="evenodd" d="M2.36707 4C1.05977 4 0 5.05977 0 6.36707V25.6344C0 26.9417 1.05978 28.0015 2.36708 28.0015H21.6292C22.9365 28.0015 23.9963 26.9417 23.9963 25.6344V6.36707C23.9963 5.05977 22.9365 4 21.6292 4H2.36707ZM15.4984 11.9386C15.4984 13.8705 13.9323 15.4366 12.0004 15.4366C10.0685 15.4366 8.50239 13.8705 8.50239 11.9386C8.50239 10.0067 10.0685 8.44059 12.0004 8.44059C13.9323 8.44059 15.4984 10.0067 15.4984 11.9386ZM7.53871 17.3467L4.85078 21.5053C4.2781 22.3913 4.9141 23.5596 5.96907 23.5596H18.0307C19.0857 23.5596 19.7217 22.3913 19.149 21.5053L16.461 17.3467C16.2157 16.9672 15.7947 16.738 15.3428 16.738H8.65699C8.20509 16.738 7.78402 16.9672 7.53871 17.3467Z" fill="#601B80"/>
</g>
</g>
</g>
</g>
</g>
</g>
<defs>
<clipPath id="clip0_8227_6627">
<rect width="32" height="32" fill="white"/>
</clipPath>
<clipPath id="clip1_8227_6627">
<rect width="32" height="32" fill="white"/>
</clipPath>
<clipPath id="clip2_8227_6627">
<rect width="32" height="32" fill="white"/>
</clipPath>
</defs>
</svg>
