<svg width="64" height="64" viewBox="0 0 64 64" fill="none" xmlns="http://www.w3.org/2000/svg">
<g id="Container">
<path d="M0 32C0 14.3269 14.3269 0 32 0C49.6731 0 64 14.3269 64 32C64 49.6731 49.6731 64 32 64C14.3269 64 0 49.6731 0 32Z" fill="url(#paint0_linear_8354_2769)"/>
<g id="Icon">
<path id="Vector" d="M45.3339 38.5605V42.5605C45.3354 42.9318 45.2593 43.2993 45.1106 43.6396C44.9618 43.9798 44.7436 44.2852 44.47 44.5363C44.1964 44.7873 43.8733 44.9784 43.5216 45.0974C43.1698 45.2164 42.7971 45.2605 42.4272 45.2271C38.3243 44.7813 34.3832 43.3793 30.9206 41.1338C27.699 39.0867 24.9677 36.3554 22.9206 33.1338C20.6672 29.6554 19.2649 25.6951 18.8272 21.5738C18.7939 21.2051 18.8377 20.8335 18.9559 20.4826C19.0741 20.1318 19.264 19.8094 19.5136 19.5359C19.7632 19.2625 20.067 19.0441 20.4056 18.8945C20.7443 18.7449 21.1103 18.6675 21.4806 18.6671H25.4806C26.1276 18.6608 26.755 18.8899 27.2456 19.3118C27.7362 19.7338 28.0567 20.3197 28.1472 20.9605C28.3161 22.2405 28.6292 23.4974 29.0806 24.7071C29.26 25.1844 29.2988 25.703 29.1924 26.2016C29.0861 26.7002 28.839 27.1579 28.4806 27.5205L26.7872 29.2138C28.6853 32.5518 31.4492 35.3157 34.7872 37.2138L36.4806 35.5205C36.8431 35.162 37.3008 34.9149 37.7994 34.8086C38.298 34.7022 38.8167 34.7411 39.2939 34.9205C40.5036 35.3719 41.7605 35.685 43.0406 35.8538C43.6883 35.9452 44.2798 36.2714 44.7026 36.7704C45.1254 37.2695 45.3501 37.9066 45.3339 38.5605Z" stroke="white" stroke-width="2.66667" stroke-linecap="round" stroke-linejoin="round"/>
</g>
</g>
<defs>
<linearGradient id="paint0_linear_8354_2769" x1="0" y1="0" x2="64" y2="64" gradientUnits="userSpaceOnUse">
<stop stop-color="#1B2280"/>
<stop offset="0.0714286" stop-color="#222280"/>
<stop offset="0.142857" stop-color="#282380"/>
<stop offset="0.214286" stop-color="#2D2380"/>
<stop offset="0.285714" stop-color="#322380"/>
<stop offset="0.357143" stop-color="#372380"/>
<stop offset="0.428571" stop-color="#3C2280"/>
<stop offset="0.5" stop-color="#412280"/>
<stop offset="0.571429" stop-color="#452180"/>
<stop offset="0.642857" stop-color="#4A2180"/>
<stop offset="0.714286" stop-color="#4E2080"/>
<stop offset="0.785714" stop-color="#531F80"/>
<stop offset="0.857143" stop-color="#571E80"/>
<stop offset="0.928571" stop-color="#5C1D80"/>
<stop offset="1" stop-color="#601B80"/>
</linearGradient>
</defs>
</svg>
