<svg width="64" height="64" viewBox="0 0 64 64" fill="none" xmlns="http://www.w3.org/2000/svg">
<g id="Container">
<path d="M0 32C0 14.3269 14.3269 0 32 0C49.6731 0 64 14.3269 64 32C64 49.6731 49.6731 64 32 64C14.3269 64 0 49.6731 0 32Z" fill="url(#paint0_linear_8354_2718)"/>
<g id="Icon">
<path id="Vector" d="M42.6654 33.3333C42.6654 39.9999 37.9987 43.3333 32.452 45.2666C32.1616 45.365 31.8461 45.3603 31.5587 45.2533C25.9987 43.3333 21.332 39.9999 21.332 33.3333V23.9999C21.332 23.6463 21.4725 23.3072 21.7226 23.0571C21.9726 22.8071 22.3117 22.6666 22.6654 22.6666C25.332 22.6666 28.6654 21.0666 30.9854 19.0399C31.2678 18.7986 31.6272 18.666 31.9987 18.666C32.3702 18.666 32.7296 18.7986 33.012 19.0399C35.3454 21.0799 38.6654 22.6666 41.332 22.6666C41.6857 22.6666 42.0248 22.8071 42.2748 23.0571C42.5249 23.3072 42.6654 23.6463 42.6654 23.9999V33.3333Z" stroke="white" stroke-width="2.66667" stroke-linecap="round" stroke-linejoin="round"/>
</g>
</g>
<defs>
<linearGradient id="paint0_linear_8354_2718" x1="0" y1="0" x2="64" y2="64" gradientUnits="userSpaceOnUse">
<stop stop-color="#1B2280"/>
<stop offset="0.0714286" stop-color="#222280"/>
<stop offset="0.142857" stop-color="#282380"/>
<stop offset="0.214286" stop-color="#2D2380"/>
<stop offset="0.285714" stop-color="#322380"/>
<stop offset="0.357143" stop-color="#372380"/>
<stop offset="0.428571" stop-color="#3C2280"/>
<stop offset="0.5" stop-color="#412280"/>
<stop offset="0.571429" stop-color="#452180"/>
<stop offset="0.642857" stop-color="#4A2180"/>
<stop offset="0.714286" stop-color="#4E2080"/>
<stop offset="0.785714" stop-color="#531F80"/>
<stop offset="0.857143" stop-color="#571E80"/>
<stop offset="0.928571" stop-color="#5C1D80"/>
<stop offset="1" stop-color="#601B80"/>
</linearGradient>
</defs>
</svg>
