<svg width="60" height="60" viewBox="0 0 60 60" fill="none" xmlns="http://www.w3.org/2000/svg">
<g id="Container">
<rect width="60" height="60" rx="8" fill="url(#paint0_linear_8354_2505)"/>
<g id="Icon">
<path id="Vector" d="M30.0004 20.6671C30.002 20.1338 29.8969 19.6055 29.6914 19.1135C29.4858 18.6214 29.1839 18.1754 28.8035 17.8017C28.423 17.4279 27.9717 17.1341 27.476 16.9374C26.9803 16.7406 26.4503 16.645 25.9171 16.6561C25.3839 16.6673 24.8583 16.7849 24.3713 17.0021C23.8842 17.2193 23.4455 17.5317 23.081 17.9209C22.7164 18.3102 22.4334 18.7684 22.2485 19.2686C22.0636 19.7688 21.9806 20.301 22.0044 20.8337C21.2207 21.0352 20.4931 21.4125 19.8767 21.9368C19.2604 22.4612 18.7714 23.1189 18.4469 23.8602C18.1224 24.6015 17.9708 25.4069 18.0036 26.2155C18.0364 27.024 18.2529 27.8145 18.6364 28.5271C17.962 29.075 17.4317 29.7794 17.0915 30.579C16.7514 31.3786 16.6118 32.2492 16.6849 33.115C16.758 33.9809 17.0415 34.8158 17.5108 35.5471C17.9802 36.2784 18.621 36.8839 19.3778 37.3111C19.2843 38.034 19.3401 38.7685 19.5416 39.4691C19.7431 40.1697 20.0862 40.8215 20.5495 41.3843C21.0128 41.9472 21.5866 42.409 22.2354 42.7414C22.8842 43.0738 23.5943 43.2696 24.3217 43.3168C25.0492 43.364 25.7786 43.2616 26.4649 43.0159C27.1513 42.7701 27.7799 42.3863 28.3121 41.8881C28.8443 41.3898 29.2687 40.7878 29.559 40.1191C29.8494 39.4505 29.9996 38.7294 30.0004 38.0004V20.6671Z" stroke="white" stroke-width="2.66667" stroke-linecap="round" stroke-linejoin="round"/>
<path id="Vector_2" d="M30 20.6671C29.9984 20.1338 30.1035 19.6055 30.3091 19.1135C30.5147 18.6214 30.8165 18.1754 31.197 17.8017C31.5774 17.4279 32.0288 17.1341 32.5245 16.9374C33.0202 16.7406 33.5502 16.645 34.0834 16.6561C34.6165 16.6673 35.1421 16.7849 35.6292 17.0021C36.1162 17.2193 36.5549 17.5317 36.9195 17.9209C37.284 18.3102 37.5671 18.7684 37.752 19.2686C37.9368 19.7688 38.0198 20.301 37.996 20.8337C38.7797 21.0352 39.5073 21.4125 40.1237 21.9368C40.7401 22.4612 41.229 23.1189 41.5536 23.8602C41.8781 24.6015 42.0297 25.4069 41.9968 26.2155C41.964 27.024 41.7476 27.8145 41.364 28.5271C42.0384 29.075 42.5688 29.7794 42.9089 30.579C43.249 31.3786 43.3886 32.2492 43.3155 33.115C43.2425 33.9809 42.9589 34.8158 42.4896 35.5471C42.0203 36.2784 41.3794 36.8839 40.6227 37.3111C40.7161 38.034 40.6604 38.7685 40.4588 39.4691C40.2573 40.1697 39.9143 40.8215 39.451 41.3843C38.9877 41.9472 38.4139 42.409 37.7651 42.7414C37.1162 43.0738 36.4062 43.2696 35.6787 43.3168C34.9512 43.364 34.2218 43.2616 33.5355 43.0159C32.8492 42.7701 32.2205 42.3863 31.6883 41.8881C31.1562 41.3898 30.7318 40.7878 30.4414 40.1191C30.151 39.4505 30.0008 38.7294 30 38.0004V20.6671Z" stroke="white" stroke-width="2.66667" stroke-linecap="round" stroke-linejoin="round"/>
<path id="Vector_3" d="M34 31.3333C32.8806 30.9395 31.9031 30.2227 31.1911 29.2733C30.4791 28.324 30.0646 27.1849 30 26C29.9354 27.1849 29.5209 28.324 28.8089 29.2733C28.0969 30.2227 27.1194 30.9395 26 31.3333" stroke="white" stroke-width="2.66667" stroke-linecap="round" stroke-linejoin="round"/>
<path id="Vector_4" d="M37.4648 22.6663C37.7875 22.1071 37.9701 21.4781 37.9968 20.833" stroke="white" stroke-width="2.66667" stroke-linecap="round" stroke-linejoin="round"/>
<path id="Vector_5" d="M22.0039 20.833C22.0303 21.478 22.2123 22.107 22.5346 22.6663" stroke="white" stroke-width="2.66667" stroke-linecap="round" stroke-linejoin="round"/>
<path id="Vector_6" d="M18.6367 28.528C18.8806 28.3293 19.1417 28.1527 19.4167 28" stroke="white" stroke-width="2.66667" stroke-linecap="round" stroke-linejoin="round"/>
<path id="Vector_7" d="M40.584 28C40.859 28.1527 41.1201 28.3293 41.364 28.528" stroke="white" stroke-width="2.66667" stroke-linecap="round" stroke-linejoin="round"/>
<path id="Vector_8" d="M21.9996 37.9995C21.0807 38 20.1773 37.763 19.377 37.3115" stroke="white" stroke-width="2.66667" stroke-linecap="round" stroke-linejoin="round"/>
<path id="Vector_9" d="M40.6227 37.3115C39.8223 37.763 38.9189 38 38 37.9995" stroke="white" stroke-width="2.66667" stroke-linecap="round" stroke-linejoin="round"/>
</g>
</g>
<defs>
<linearGradient id="paint0_linear_8354_2505" x1="0" y1="0" x2="60" y2="60" gradientUnits="userSpaceOnUse">
<stop stop-color="#1B2280"/>
<stop offset="0.0714286" stop-color="#222280"/>
<stop offset="0.142857" stop-color="#282380"/>
<stop offset="0.214286" stop-color="#2D2380"/>
<stop offset="0.285714" stop-color="#322380"/>
<stop offset="0.357143" stop-color="#372380"/>
<stop offset="0.428571" stop-color="#3C2280"/>
<stop offset="0.5" stop-color="#412280"/>
<stop offset="0.571429" stop-color="#452180"/>
<stop offset="0.642857" stop-color="#4A2180"/>
<stop offset="0.714286" stop-color="#4E2080"/>
<stop offset="0.785714" stop-color="#531F80"/>
<stop offset="0.857143" stop-color="#571E80"/>
<stop offset="0.928571" stop-color="#5C1D80"/>
<stop offset="1" stop-color="#601B80"/>
</linearGradient>
</defs>
</svg>
