<svg width="64" height="64" viewBox="0 0 64 64" fill="none" xmlns="http://www.w3.org/2000/svg">
<g id="Container">
<path d="M0 32C0 14.3269 14.3269 0 32 0C49.6731 0 64 14.3269 64 32C64 49.6731 49.6731 64 32 64C14.3269 64 0 49.6731 0 32Z" fill="url(#paint0_linear_8354_2739)"/>
<g id="Icon">
<path id="Vector" d="M41.3346 34.6667C43.3213 32.72 45.3346 30.3867 45.3346 27.3333C45.3346 25.3884 44.562 23.5232 43.1868 22.1479C41.8115 20.7726 39.9462 20 38.0013 20C35.6546 20 34.0013 20.6667 32.0013 22.6667C30.0013 20.6667 28.348 20 26.0013 20C24.0564 20 22.1911 20.7726 20.8159 22.1479C19.4406 23.5232 18.668 25.3884 18.668 27.3333C18.668 30.4 20.668 32.7333 22.668 34.6667L32.0013 44L41.3346 34.6667Z" stroke="white" stroke-width="2.66667" stroke-linecap="round" stroke-linejoin="round"/>
</g>
</g>
<defs>
<linearGradient id="paint0_linear_8354_2739" x1="0" y1="0" x2="64" y2="64" gradientUnits="userSpaceOnUse">
<stop stop-color="#1B2280"/>
<stop offset="0.0714286" stop-color="#222280"/>
<stop offset="0.142857" stop-color="#282380"/>
<stop offset="0.214286" stop-color="#2D2380"/>
<stop offset="0.285714" stop-color="#322380"/>
<stop offset="0.357143" stop-color="#372380"/>
<stop offset="0.428571" stop-color="#3C2280"/>
<stop offset="0.5" stop-color="#412280"/>
<stop offset="0.571429" stop-color="#452180"/>
<stop offset="0.642857" stop-color="#4A2180"/>
<stop offset="0.714286" stop-color="#4E2080"/>
<stop offset="0.785714" stop-color="#531F80"/>
<stop offset="0.857143" stop-color="#571E80"/>
<stop offset="0.928571" stop-color="#5C1D80"/>
<stop offset="1" stop-color="#601B80"/>
</linearGradient>
</defs>
</svg>
