<svg width="64" height="64" viewBox="0 0 64 64" fill="none" xmlns="http://www.w3.org/2000/svg">
<g id="Container">
<path d="M0 32C0 14.3269 14.3269 0 32 0C49.6731 0 64 14.3269 64 32C64 49.6731 49.6731 64 32 64C14.3269 64 0 49.6731 0 32Z" fill="url(#paint0_linear_8354_2727)"/>
<g id="Icon">
<path id="Vector" d="M37.3346 44V41.3333C37.3346 39.9188 36.7727 38.5623 35.7725 37.5621C34.7723 36.5619 33.4158 36 32.0013 36H24.0013C22.5868 36 21.2303 36.5619 20.2301 37.5621C19.2299 38.5623 18.668 39.9188 18.668 41.3333V44" stroke="white" stroke-width="2.66667" stroke-linecap="round" stroke-linejoin="round"/>
<path id="Vector_2" d="M28.0013 30.6667C30.9468 30.6667 33.3346 28.2789 33.3346 25.3333C33.3346 22.3878 30.9468 20 28.0013 20C25.0558 20 22.668 22.3878 22.668 25.3333C22.668 28.2789 25.0558 30.6667 28.0013 30.6667Z" stroke="white" stroke-width="2.66667" stroke-linecap="round" stroke-linejoin="round"/>
<path id="Vector_3" d="M45.332 43.9995V41.3329C45.3311 40.1512 44.9378 39.0032 44.2139 38.0693C43.4899 37.1353 42.4762 36.4683 41.332 36.1729" stroke="white" stroke-width="2.66667" stroke-linecap="round" stroke-linejoin="round"/>
<path id="Vector_4" d="M37.332 20.1729C38.4793 20.4666 39.4961 21.1338 40.2222 22.0693C40.9484 23.0047 41.3425 24.1553 41.3425 25.3395C41.3425 26.5237 40.9484 27.6743 40.2222 28.6098C39.4961 29.5452 38.4793 30.2125 37.332 30.5062" stroke="white" stroke-width="2.66667" stroke-linecap="round" stroke-linejoin="round"/>
</g>
</g>
<defs>
<linearGradient id="paint0_linear_8354_2727" x1="0" y1="0" x2="64" y2="64" gradientUnits="userSpaceOnUse">
<stop stop-color="#1B2280"/>
<stop offset="0.0714286" stop-color="#222280"/>
<stop offset="0.142857" stop-color="#282380"/>
<stop offset="0.214286" stop-color="#2D2380"/>
<stop offset="0.285714" stop-color="#322380"/>
<stop offset="0.357143" stop-color="#372380"/>
<stop offset="0.428571" stop-color="#3C2280"/>
<stop offset="0.5" stop-color="#412280"/>
<stop offset="0.571429" stop-color="#452180"/>
<stop offset="0.642857" stop-color="#4A2180"/>
<stop offset="0.714286" stop-color="#4E2080"/>
<stop offset="0.785714" stop-color="#531F80"/>
<stop offset="0.857143" stop-color="#571E80"/>
<stop offset="0.928571" stop-color="#5C1D80"/>
<stop offset="1" stop-color="#601B80"/>
</linearGradient>
</defs>
</svg>
