<svg width="41" height="41" viewBox="0 0 41 41" fill="none" xmlns="http://www.w3.org/2000/svg">
<g id="Frame 1707480968">
<rect width="40.8582" height="40.8582" rx="20.4291" fill="#6A1B94"/>
<g id="uil:linkedin">
<path id="Vector" d="M26.9605 12.7193H13.9013C13.7545 12.7173 13.6088 12.7442 13.4724 12.7985C13.336 12.8528 13.2116 12.9334 13.1064 13.0358C13.0011 13.1382 12.9171 13.2603 12.8591 13.3951C12.801 13.53 12.7701 13.6749 12.7681 13.8217V27.0351C12.7701 27.1819 12.801 27.3269 12.8591 27.4617C12.9171 27.5966 13.0011 27.7187 13.1064 27.8211C13.2116 27.9234 13.336 28.0041 13.4724 28.0584C13.6088 28.1127 13.7545 28.1396 13.9013 28.1375H26.9605C27.1073 28.1396 27.2531 28.1127 27.3895 28.0584C27.5259 28.0041 27.6503 27.9234 27.7555 27.8211C27.8607 27.7187 27.9448 27.5966 28.0028 27.4617C28.0609 27.3269 28.0918 27.1819 28.0938 27.0351V13.8217C28.0918 13.6749 28.0609 13.53 28.0028 13.3951C27.9448 13.2603 27.8607 13.1382 27.7555 13.0358C27.6503 12.9334 27.5259 12.8528 27.3895 12.7985C27.2531 12.7442 27.1073 12.7173 26.9605 12.7193ZM17.4167 25.6244H15.104V18.6862H17.4167V25.6244ZM16.2603 17.7148C15.9414 17.7148 15.6355 17.5881 15.4099 17.3626C15.1844 17.1371 15.0577 16.8312 15.0577 16.5122C15.0577 16.1933 15.1844 15.8874 15.4099 15.6618C15.6355 15.4363 15.9414 15.3096 16.2603 15.3096C16.4297 15.2904 16.6012 15.3072 16.7636 15.3588C16.9261 15.4105 17.0757 15.4959 17.2029 15.6095C17.33 15.723 17.4317 15.8621 17.5014 16.0177C17.571 16.1732 17.607 16.3418 17.607 16.5122C17.607 16.6827 17.571 16.8512 17.5014 17.0068C17.4317 17.1623 17.33 17.3014 17.2029 17.415C17.0757 17.5285 16.9261 17.6139 16.7636 17.6656C16.6012 17.7173 16.4297 17.734 16.2603 17.7148ZM25.7579 25.6244H23.4452V21.9009C23.4452 20.9681 23.1137 20.3591 22.2734 20.3591C22.0133 20.361 21.7601 20.4425 21.5479 20.5928C21.3356 20.743 21.1745 20.9547 21.0862 21.1993C21.0259 21.3805 20.9997 21.5714 21.0091 21.7621V25.6167H18.6964V18.6785H21.0091V19.6575C21.2192 19.293 21.5248 18.9926 21.8929 18.7889C22.2611 18.5851 22.6778 18.4856 23.0983 18.5012C24.6401 18.5012 25.7579 19.4956 25.7579 21.6311V25.6244Z" fill="white"/>
</g>
</g>
</svg>
