<svg width="56" height="56" viewBox="0 0 56 56" fill="none" xmlns="http://www.w3.org/2000/svg">
<g id="Container">
<path d="M0 10C0 4.47715 4.47715 0 10 0H46C51.5229 0 56 4.47715 56 10V46C56 51.5229 51.5228 56 46 56H10C4.47715 56 0 51.5228 0 46V10Z" fill="#1B2280"/>
<g id="Icon">
<path id="Vector" d="M32.0565 29.0386L33.824 38.9856C33.8438 39.1027 33.8274 39.2231 33.7769 39.3306C33.7264 39.4382 33.6443 39.5277 33.5416 39.5873C33.4388 39.647 33.3203 39.6738 33.2019 39.6642C33.0835 39.6547 32.9709 39.6092 32.879 39.5339L28.7023 36.3991C28.5007 36.2484 28.2558 36.167 28.0041 36.167C27.7524 36.167 27.5075 36.2484 27.3058 36.3991L23.1222 39.5327C23.0304 39.6079 22.9178 39.6533 22.7996 39.6629C22.6813 39.6724 22.563 39.6457 22.4603 39.5863C22.3576 39.5268 22.2755 39.4375 22.2249 39.3301C22.1743 39.2228 22.1577 39.1026 22.1772 38.9856L23.9435 29.0386" stroke="white" stroke-width="2.33333" stroke-linecap="round" stroke-linejoin="round"/>
<path id="Vector_2" d="M28 30.3335C31.866 30.3335 35 27.1995 35 23.3335C35 19.4675 31.866 16.3335 28 16.3335C24.134 16.3335 21 19.4675 21 23.3335C21 27.1995 24.134 30.3335 28 30.3335Z" stroke="white" stroke-width="2.33333" stroke-linecap="round" stroke-linejoin="round"/>
</g>
</g>
</svg>
