<svg width="139" height="25" viewBox="0 0 139 25" fill="none" xmlns="http://www.w3.org/2000/svg">
<g id="Frame 260">
<g id="star_purple500">
<path id="Vector" d="M12.2054 17.5655L18.4912 21.3594L16.8231 14.209L22.3765 9.39809L15.0635 8.77765L12.2054 2.03418L9.34729 8.77765L2.03424 9.39809L7.58769 14.209L5.91962 21.3594L12.2054 17.5655Z" fill="#F98F28"/>
</g>
<g id="star_purple500_2">
<path id="Vector_2" d="M40.6846 17.5655L46.9703 21.3594L45.3023 14.209L50.8557 9.39809L43.5427 8.77765L40.6846 2.03418L37.8265 8.77765L30.5134 9.39809L36.0669 14.209L34.3988 21.3594L40.6846 17.5655Z" fill="#F98F28"/>
</g>
<g id="star_purple500_3">
<path id="Vector_3" d="M69.1638 17.5655L75.4496 21.3594L73.7815 14.209L79.335 9.39809L72.0219 8.77765L69.1638 2.03418L66.3057 8.77765L58.9927 9.39809L64.5461 14.209L62.8781 21.3594L69.1638 17.5655Z" fill="#F98F28"/>
</g>
<g id="star_purple500_4">
<path id="Vector_4" d="M97.643 17.5655L103.929 21.3594L102.261 14.209L107.814 9.39809L100.501 8.77765L97.643 2.03418L94.7849 8.77765L87.4719 9.39809L93.0253 14.209L91.3572 21.3594L97.643 17.5655Z" fill="#F98F28"/>
</g>
<g id="star_purple500_5">
<path id="Vector_5" d="M126.122 17.5655L132.408 21.3594L130.74 14.209L136.293 9.39809L128.98 8.77765L126.122 2.03418L123.264 8.77765L115.951 9.39809L121.505 14.209L119.836 21.3594L126.122 17.5655Z" fill="#F98F28"/>
</g>
</g>
</svg>
