<svg width="84" height="13" viewBox="0 0 84 13" fill="none" xmlns="http://www.w3.org/2000/svg">
<g id="Frame 1597884923">
<g id="Icon" clip-path="url(#clip0_8253_4309)">
<path id="Vector" d="M7.57866 0.456854C7.73101 0.152166 7.97645 -0.000178337 8.31499 -0.000178337C8.65353 -0.000178337 8.89897 0.152166 9.05132 0.456854L10.7017 3.80842L14.4087 4.36701C14.7473 4.40086 14.9673 4.5786 15.0689 4.90021C15.1705 5.22183 15.1028 5.50112 14.8658 5.7381L12.1744 8.35334L12.8091 12.0604C12.8599 12.382 12.7499 12.6401 12.4791 12.8348C12.2082 13.0294 11.9289 13.0506 11.6412 12.8983L8.31499 11.1717L4.98882 12.8983C4.70106 13.0675 4.42176 13.0506 4.15093 12.8475C3.88009 12.6444 3.77007 12.382 3.82085 12.0604L4.45562 8.35334L1.76421 5.7381C1.52723 5.50112 1.45952 5.22183 1.56108 4.90021C1.66265 4.5786 1.8827 4.40086 2.22124 4.36701L5.92827 3.80842L7.57866 0.456854Z" fill="#F98F28"/>
</g>
<g id="Icon_2" clip-path="url(#clip1_8253_4309)">
<path id="Vector_2" d="M24.204 0.456854C24.3563 0.152166 24.6016 -0.000178337 24.9399 -0.000178337C25.2783 -0.000178337 25.5236 0.152166 25.6758 0.456854L27.3252 3.80842L31.03 4.36701C31.3684 4.40086 31.5883 4.5786 31.6898 4.90021C31.7913 5.22183 31.7236 5.50112 31.4868 5.7381L28.797 8.35334L29.4314 12.0604C29.4821 12.382 29.3722 12.6401 29.1015 12.8348C28.8308 13.0294 28.5517 13.0506 28.2641 12.8983L24.9399 11.1717L21.6158 12.8983C21.3282 13.0675 21.049 13.0506 20.7784 12.8475C20.5077 12.6444 20.3977 12.382 20.4485 12.0604L21.0829 8.35334L18.3931 5.7381C18.1563 5.50112 18.0886 5.22183 18.1901 4.90021C18.2916 4.5786 18.5115 4.40086 18.8498 4.36701L22.5546 3.80842L24.204 0.456854Z" fill="#F98F28"/>
</g>
<g id="Icon_3" clip-path="url(#clip2_8253_4309)">
<path id="Vector_3" d="M40.8287 0.456854C40.981 0.152166 41.2264 -0.000178337 41.565 -0.000178337C41.9035 -0.000178337 42.149 0.152166 42.3013 0.456854L43.9517 3.80842L47.6587 4.36701C47.9973 4.40086 48.2173 4.5786 48.3189 4.90021C48.4205 5.22183 48.3528 5.50112 48.1158 5.7381L45.4244 8.35334L46.0591 12.0604C46.1099 12.382 45.9999 12.6401 45.7291 12.8348C45.4582 13.0294 45.1789 13.0506 44.8912 12.8983L41.565 11.1717L38.2388 12.8983C37.9511 13.0675 37.6718 13.0506 37.4009 12.8475C37.1301 12.6444 37.0201 12.382 37.0708 12.0604L37.7056 8.35334L35.0142 5.7381C34.7772 5.50112 34.7095 5.22183 34.8111 4.90021C34.9126 4.5786 35.1327 4.40086 35.4712 4.36701L39.1783 3.80842L40.8287 0.456854Z" fill="#F98F28"/>
</g>
<g id="Icon_4" clip-path="url(#clip3_8253_4309)">
<path id="Vector_4" d="M57.454 0.456854C57.6063 0.152166 57.8516 -0.000178337 58.1899 -0.000178337C58.5283 -0.000178337 58.7736 0.152166 58.9258 0.456854L60.5752 3.80842L64.28 4.36701C64.6184 4.40086 64.8383 4.5786 64.9398 4.90021C65.0413 5.22183 64.9736 5.50112 64.7368 5.7381L62.047 8.35334L62.6814 12.0604C62.7321 12.382 62.6222 12.6401 62.3515 12.8348C62.0808 13.0294 61.8017 13.0506 61.5141 12.8983L58.1899 11.1717L54.8658 12.8983C54.5782 13.0675 54.299 13.0506 54.0284 12.8475C53.7577 12.6444 53.6477 12.382 53.6985 12.0604L54.3329 8.35334L51.6431 5.7381C51.4063 5.50112 51.3386 5.22183 51.4401 4.90021C51.5416 4.5786 51.7615 4.40086 52.0998 4.36701L55.8046 3.80842L57.454 0.456854Z" fill="#F98F28"/>
</g>
<g id="Icon_5" clip-path="url(#clip4_8253_4309)">
<path id="Vector_5" d="M74.0787 0.456854C74.231 0.152166 74.4764 -0.000178337 74.815 -0.000178337C75.1535 -0.000178337 75.399 0.152166 75.5513 0.456854L77.2017 3.80842L80.9087 4.36701C81.2473 4.40086 81.4673 4.5786 81.5689 4.90021C81.6705 5.22183 81.6028 5.50112 81.3658 5.7381L78.6744 8.35334L79.3091 12.0604C79.3599 12.382 79.2499 12.6401 78.9791 12.8348C78.7082 13.0294 78.4289 13.0506 78.1412 12.8983L74.815 11.1717L71.4888 12.8983C71.2011 13.0675 70.9218 13.0506 70.6509 12.8475C70.3801 12.6444 70.2701 12.382 70.3208 12.0604L70.9556 8.35334L68.2642 5.7381C68.0272 5.50112 67.9595 5.22183 68.0611 4.90021C68.1626 4.5786 68.3827 4.40086 68.7212 4.36701L72.4283 3.80842L74.0787 0.456854Z" fill="#F98F28"/>
</g>
</g>
<defs>
<clipPath id="clip0_8253_4309">
<rect width="16.63" height="13" fill="white" transform="matrix(1 0 0 -1 0 13)"/>
</clipPath>
<clipPath id="clip1_8253_4309">
<rect width="16.62" height="13" fill="white" transform="matrix(1 0 0 -1 16.6299 13)"/>
</clipPath>
<clipPath id="clip2_8253_4309">
<rect width="16.63" height="13" fill="white" transform="matrix(1 0 0 -1 33.25 13)"/>
</clipPath>
<clipPath id="clip3_8253_4309">
<rect width="16.62" height="13" fill="white" transform="matrix(1 0 0 -1 49.8799 13)"/>
</clipPath>
<clipPath id="clip4_8253_4309">
<rect width="16.63" height="13" fill="white" transform="matrix(1 0 0 -1 66.5 13)"/>
</clipPath>
</defs>
</svg>
