<svg width="20" height="20" viewBox="0 0 20 20" fill="none" xmlns="http://www.w3.org/2000/svg">
<g id="Icon">
<path id="Vector" d="M16.6654 8.33366C16.6654 12.4945 12.0495 16.8278 10.4995 18.1662C10.3551 18.2747 10.1794 18.3335 9.9987 18.3335C9.81803 18.3335 9.64226 18.2747 9.49786 18.1662C7.94786 16.8278 3.33203 12.4945 3.33203 8.33366C3.33203 6.56555 4.03441 4.86986 5.28465 3.61961C6.5349 2.36937 8.23059 1.66699 9.9987 1.66699C11.7668 1.66699 13.4625 2.36937 14.7127 3.61961C15.963 4.86986 16.6654 6.56555 16.6654 8.33366Z" stroke="#601B80" stroke-width="1.66667" stroke-linecap="round" stroke-linejoin="round"/>
<path id="Vector_2" d="M10 10.833C11.3807 10.833 12.5 9.71372 12.5 8.33301C12.5 6.9523 11.3807 5.83301 10 5.83301C8.61929 5.83301 7.5 6.9523 7.5 8.33301C7.5 9.71372 8.61929 10.833 10 10.833Z" stroke="#601B80" stroke-width="1.66667" stroke-linecap="round" stroke-linejoin="round"/>
</g>
</svg>
