<svg width="56" height="56" viewBox="0 0 56 56" fill="none" xmlns="http://www.w3.org/2000/svg">
<g id="Container">
<path d="M0 10C0 4.47715 4.47715 0 10 0H46C51.5229 0 56 4.47715 56 10V46C56 51.5229 51.5228 56 46 56H10C4.47715 56 0 51.5228 0 46V10Z" fill="#1B2280"/>
<g id="Icon">
<path id="Vector" d="M30.3333 16.3335V23.3335C30.3332 23.7249 30.4315 24.11 30.6192 24.4535L37.0475 36.2135C37.242 36.5689 37.3405 36.9687 37.3335 37.3738C37.3265 37.7788 37.2142 38.175 37.0076 38.5235C36.801 38.8719 36.5073 39.1606 36.1553 39.3611C35.8032 39.5616 35.4051 39.6669 35 39.6668H21C20.5949 39.6669 20.1968 39.5616 19.8448 39.3611C19.4928 39.1606 19.199 38.8719 18.9924 38.5235C18.7858 38.175 18.6735 37.7788 18.6665 37.3738C18.6595 36.9687 18.7581 36.5689 18.9525 36.2135L25.3808 24.4535C25.5685 24.11 25.6668 23.7249 25.6667 23.3335V16.3335" stroke="white" stroke-width="2.33333" stroke-linecap="round" stroke-linejoin="round"/>
<path id="Vector_2" d="M21.5285 31.5H34.4715" stroke="white" stroke-width="2.33333" stroke-linecap="round" stroke-linejoin="round"/>
<path id="Vector_3" d="M23.9167 16.3335H32.0833" stroke="white" stroke-width="2.33333" stroke-linecap="round" stroke-linejoin="round"/>
</g>
</g>
</svg>
