<svg width="41" height="41" viewBox="0 0 41 41" fill="none" xmlns="http://www.w3.org/2000/svg">
<g id="Frame 1707480967">
<rect width="40.8582" height="40.8582" rx="20.4291" fill="#6A1B94"/>
<g id="ri:instagram-fill">
<path id="Vector" d="M21.2231 12.7192C22.0904 12.7216 22.5305 12.7262 22.9106 12.737L23.0602 12.7424C23.2328 12.7485 23.4032 12.7562 23.609 12.7655C24.4293 12.804 24.989 12.9336 25.48 13.124C25.9888 13.3198 26.4175 13.585 26.8461 14.0128C27.2382 14.3981 27.5416 14.8643 27.7349 15.3789C27.9254 15.8699 28.0549 16.4296 28.0934 17.2506C28.1027 17.4557 28.1104 17.6261 28.1165 17.7995L28.1212 17.9491C28.1327 18.3284 28.1374 18.7686 28.1389 19.6358L28.1397 20.2109V21.2208C28.1416 21.7831 28.1356 22.3454 28.1219 22.9076L28.1173 23.0571C28.1112 23.2306 28.1034 23.401 28.0942 23.606C28.0556 24.427 27.9246 24.9859 27.7349 25.4778C27.5416 25.9924 27.2382 26.4586 26.8461 26.8438C26.4608 27.236 25.9946 27.5393 25.48 27.7327C24.989 27.9231 24.4293 28.0526 23.609 28.0912L23.0602 28.1143L22.9106 28.1189C22.5305 28.1297 22.0904 28.1351 21.2231 28.1366L20.648 28.1374H19.6389C19.0763 28.1394 18.5137 28.1335 17.9513 28.1197L17.8018 28.1151C17.6188 28.1081 17.4358 28.1002 17.2529 28.0912C16.4326 28.0526 15.873 27.9231 15.3811 27.7327C14.8668 27.5392 14.4009 27.2359 14.0158 26.8438C13.6234 26.4587 13.3198 25.9925 13.1262 25.4778C12.9358 24.9867 12.8063 24.427 12.7677 23.606L12.7446 23.0571L12.7408 22.9076C12.7266 22.3454 12.7201 21.7831 12.7215 21.2208V19.6358C12.7194 19.0735 12.725 18.5112 12.7385 17.9491L12.7438 17.7995C12.75 17.6261 12.7577 17.4557 12.767 17.2506C12.8055 16.4296 12.935 15.8707 13.1254 15.3789C13.3195 14.8641 13.6236 14.3978 14.0166 14.0128C14.4014 13.6209 14.8671 13.3175 15.3811 13.124C15.873 12.9336 16.4319 12.804 17.2529 12.7655C17.458 12.7562 17.6291 12.7485 17.8018 12.7424L17.9513 12.7377C18.5135 12.724 19.0758 12.7181 19.6381 12.72L21.2231 12.7192ZM20.4306 16.5738C19.4083 16.5738 18.4279 16.9799 17.705 17.7028C16.9821 18.4256 16.576 19.406 16.576 20.4283C16.576 21.4506 16.9821 22.431 17.705 23.1539C18.4279 23.8768 19.4083 24.2829 20.4306 24.2829C21.4529 24.2829 22.4333 23.8768 23.1562 23.1539C23.879 22.431 24.2851 21.4506 24.2851 20.4283C24.2851 19.406 23.879 18.4256 23.1562 17.7028C22.4333 16.9799 21.4529 16.5738 20.4306 16.5738ZM20.4306 18.1156C20.7343 18.1156 21.035 18.1753 21.3157 18.2915C21.5963 18.4077 21.8512 18.578 22.066 18.7927C22.2808 19.0074 22.4512 19.2624 22.5675 19.5429C22.6838 19.8235 22.7436 20.1242 22.7437 20.4279C22.7437 20.7317 22.684 21.0324 22.5678 21.313C22.4516 21.5936 22.2813 21.8486 22.0666 22.0634C21.8519 22.2782 21.5969 22.4486 21.3164 22.5649C21.0358 22.6811 20.7351 22.741 20.4314 22.7411C19.818 22.7411 19.2297 22.4974 18.796 22.0637C18.3623 21.63 18.1186 21.0417 18.1186 20.4283C18.1186 19.815 18.3623 19.2267 18.796 18.793C19.2297 18.3593 19.818 18.1156 20.4314 18.1156M24.4786 15.4174C24.2231 15.4174 23.978 15.5189 23.7972 15.6997C23.6165 15.8804 23.515 16.1255 23.515 16.3811C23.515 16.6366 23.6165 16.8817 23.7972 17.0624C23.978 17.2432 24.2231 17.3447 24.4786 17.3447C24.7342 17.3447 24.9793 17.2432 25.16 17.0624C25.3407 16.8817 25.4423 16.6366 25.4423 16.3811C25.4423 16.1255 25.3407 15.8804 25.16 15.6997C24.9793 15.5189 24.7342 15.4174 24.4786 15.4174Z" fill="white"/>
</g>
</g>
</svg>
