<svg width="20" height="20" viewBox="0 0 20 20" fill="none" xmlns="http://www.w3.org/2000/svg">
<g id="Frame 1707481140">
<path id="Vector" d="M8.53389 18.3631C9.00522 18.7683 9.49678 19.1386 10 19.5C10.5043 19.1434 10.9935 18.7641 11.4661 18.3631C12.254 17.6892 12.9955 16.9584 13.6851 16.1761C15.2749 14.3651 17 11.7398 17 8.7927C17 7.83501 16.8189 6.88669 16.4672 6.0019C16.1154 5.11711 15.5998 4.31317 14.9497 3.63598C14.2997 2.95879 13.5281 2.42162 12.6788 2.05512C11.8295 1.68863 10.9193 1.5 10 1.5C9.08075 1.5 8.1705 1.68863 7.32122 2.05512C6.47194 2.42162 5.70026 2.95879 5.05025 3.63598C4.40024 4.31317 3.88463 5.11711 3.53284 6.0019C3.18106 6.88669 3 7.83501 3 8.7927C3 11.7398 4.72511 14.3643 6.31489 16.1761C7.00448 16.9586 7.74597 17.6889 8.53389 18.3631ZM10 11.4262C9.32959 11.4262 8.68664 11.1487 8.21259 10.6548C7.73854 10.161 7.47222 9.49114 7.47222 8.7927C7.47222 8.09426 7.73854 7.42442 8.21259 6.93055C8.68664 6.43668 9.32959 6.15922 10 6.15922C10.6704 6.15922 11.3134 6.43668 11.7874 6.93055C12.2615 7.42442 12.5278 8.09426 12.5278 8.7927C12.5278 9.49114 12.2615 10.161 11.7874 10.6548C11.3134 11.1487 10.6704 11.4262 10 11.4262Z" fill="white"/>
</g>
</svg>
