<svg width="16" height="16" viewBox="0 0 16 16" fill="none" xmlns="http://www.w3.org/2000/svg">
<g id="ri:instagram-fill">
<path id="Vector" d="M8.68441 1.33301C9.43441 1.33501 9.81508 1.33901 10.1437 1.34834L10.2731 1.35301C10.4224 1.35834 10.5697 1.36501 10.7477 1.37301C11.4571 1.40634 11.9411 1.51834 12.3657 1.68301C12.8057 1.85234 13.1764 2.08167 13.5471 2.45167C13.8862 2.78483 14.1485 3.18799 14.3157 3.63301C14.4804 4.05767 14.5924 4.54167 14.6257 5.25167C14.6337 5.42901 14.6404 5.57634 14.6457 5.72634L14.6497 5.85567C14.6597 6.18367 14.6637 6.56434 14.6651 7.31434L14.6657 7.81168V8.68501C14.6674 9.17128 14.6623 9.65755 14.6504 10.1437L14.6464 10.273C14.6411 10.423 14.6344 10.5703 14.6264 10.7477C14.5931 11.4577 14.4797 11.941 14.3157 12.3663C14.1485 12.8114 13.8862 13.2145 13.5471 13.5477C13.2139 13.8868 12.8108 14.1491 12.3657 14.3163C11.9411 14.481 11.4571 14.593 10.7477 14.6263L10.2731 14.6463L10.1437 14.6503C9.81508 14.6597 9.43441 14.6643 8.68441 14.6657L8.18708 14.6663H7.31441C6.82792 14.6681 6.34143 14.6629 5.85508 14.651L5.72574 14.647C5.56748 14.641 5.40926 14.6341 5.25108 14.6263C4.54174 14.593 4.05774 14.481 3.63241 14.3163C3.18763 14.149 2.78471 13.8867 2.45174 13.5477C2.11237 13.2146 1.84982 12.8114 1.68241 12.3663C1.51774 11.9417 1.40574 11.4577 1.37241 10.7477L1.35241 10.273L1.34908 10.1437C1.33679 9.65755 1.33123 9.17128 1.33241 8.68501V7.31434C1.33057 6.82807 1.33545 6.34181 1.34708 5.85567L1.35174 5.72634C1.35708 5.57634 1.36374 5.42901 1.37174 5.25167C1.40508 4.54167 1.51708 4.05834 1.68174 3.63301C1.84954 3.18781 2.11256 2.78463 2.45241 2.45167C2.78518 2.11271 3.18787 1.85039 3.63241 1.68301C4.05774 1.51834 4.54108 1.40634 5.25108 1.37301C5.42841 1.36501 5.57641 1.35834 5.72574 1.35301L5.85508 1.34901C6.34121 1.33716 6.82747 1.33205 7.31374 1.33367L8.68441 1.33301ZM7.99908 4.66634C7.11502 4.66634 6.26718 5.01753 5.64205 5.64265C5.01693 6.26777 4.66574 7.11562 4.66574 7.99967C4.66574 8.88373 5.01693 9.73158 5.64205 10.3567C6.26718 10.9818 7.11502 11.333 7.99908 11.333C8.88313 11.333 9.73098 10.9818 10.3561 10.3567C10.9812 9.73158 11.3324 8.88373 11.3324 7.99967C11.3324 7.11562 10.9812 6.26777 10.3561 5.64265C9.73098 5.01753 8.88313 4.66634 7.99908 4.66634ZM7.99908 5.99967C8.26172 5.99963 8.5218 6.05132 8.76447 6.15179C9.00714 6.25226 9.22764 6.39954 9.41339 6.58523C9.59914 6.77091 9.74649 6.99137 9.84704 7.234C9.94759 7.47663 9.99937 7.7367 9.99941 7.99934C9.99945 8.26199 9.94777 8.52207 9.8473 8.76473C9.74683 9.0074 9.59955 9.2279 9.41386 9.41365C9.22817 9.5994 9.00772 9.74676 8.76509 9.84731C8.52245 9.94786 8.26239 9.99963 7.99974 9.99967C7.46931 9.99967 6.9606 9.78896 6.58553 9.41389C6.21046 9.03882 5.99974 8.53011 5.99974 7.99967C5.99974 7.46924 6.21046 6.96053 6.58553 6.58546C6.9606 6.21039 7.46931 5.99967 7.99974 5.99967M11.4997 3.66634C11.2787 3.66634 11.0668 3.75414 10.9105 3.91042C10.7542 4.0667 10.6664 4.27866 10.6664 4.49967C10.6664 4.72069 10.7542 4.93265 10.9105 5.08893C11.0668 5.24521 11.2787 5.33301 11.4997 5.33301C11.7208 5.33301 11.9327 5.24521 12.089 5.08893C12.2453 4.93265 12.3331 4.72069 12.3331 4.49967C12.3331 4.27866 12.2453 4.0667 12.089 3.91042C11.9327 3.75414 11.7208 3.66634 11.4997 3.66634Z" fill="white"/>
</g>
</svg>
