<svg width="56" height="56" viewBox="0 0 56 56" fill="none" xmlns="http://www.w3.org/2000/svg">
<g id="Container">
<path d="M0 10C0 4.47715 4.47715 0 10 0H46C51.5229 0 56 4.47715 56 10V46C56 51.5229 51.5228 56 46 56H10C4.47715 56 0 51.5228 0 46V10Z" fill="#1B2280"/>
<g id="Icon">
<path id="Vector" d="M36.1667 30.3333C37.905 28.63 39.6667 26.5883 39.6667 23.9167C39.6667 22.2149 38.9906 20.5828 37.7873 19.3794C36.5839 18.176 34.9518 17.5 33.25 17.5C31.1967 17.5 29.75 18.0833 28 19.8333C26.25 18.0833 24.8033 17.5 22.75 17.5C21.0482 17.5 19.4161 18.176 18.2127 19.3794C17.0094 20.5828 16.3333 22.2149 16.3333 23.9167C16.3333 26.6 18.0833 28.6417 19.8333 30.3333L28 38.5L36.1667 30.3333Z" stroke="white" stroke-width="2.33333" stroke-linecap="round" stroke-linejoin="round"/>
</g>
</g>
</svg>
