<svg width="75" height="75" viewBox="0 0 75 75" fill="none" xmlns="http://www.w3.org/2000/svg">
<g id="Container">
<rect width="74.025" height="74.025" rx="37.0125" fill="white" fill-opacity="0.9"/>
<path id="Vector" d="M29.3156 49.5537C29.5894 49.7179 29.8996 49.7909 30.2099 49.7909C30.5201 49.7909 30.8669 49.6997 31.1406 49.5354L49.3907 38.5854C49.9382 38.2569 50.2849 37.6546 50.2849 37.0159C50.2849 36.3771 49.9564 35.7749 49.3907 35.4464L31.1406 24.4963C30.8633 24.3281 30.5458 24.2377 30.2215 24.2345C29.8972 24.2313 29.578 24.3154 29.2974 24.4781C28.7316 24.8066 28.3666 25.4088 28.3666 26.0658V47.9659C28.3666 48.6229 28.7134 49.2252 29.2974 49.5537H29.3156Z" fill="#1B2280"/>
</g>
</svg>
