<svg width="110" height="110" viewBox="0 0 110 110" fill="none" xmlns="http://www.w3.org/2000/svg">
<g id="Container">
<rect width="109.915" height="109.915" rx="54.9574" fill="white" fill-opacity="0.9"/>
<path id="Vector" d="M43.5288 73.5789C43.9353 73.8228 44.396 73.9312 44.8567 73.9312C45.3173 73.9312 45.8322 73.7957 46.2387 73.5518L73.337 57.2928C74.15 56.805 74.6648 55.9108 74.6648 54.9623C74.6648 54.0139 74.1771 53.1196 73.337 52.6319L46.2387 36.3729C45.8269 36.1231 45.3555 35.9888 44.8739 35.984C44.3923 35.9793 43.9184 36.1042 43.5017 36.3458C42.6617 36.8335 42.1197 37.7278 42.1197 38.7033V71.2213C42.1197 72.1969 42.6346 73.0911 43.5017 73.5789H43.5288Z" fill="#1B2280"/>
</g>
</svg>
