<svg width="38" height="37" viewBox="0 0 38 37" fill="none" xmlns="http://www.w3.org/2000/svg">
<g id="6824bb23284d64d2d3908669_Highlight_03%20(1).svg" clip-path="url(#clip0_8253_3810)">
<g id="6824bb23284d64d2d3908669_Highlight_03%20(1).svg fill" clip-path="url(#clip1_8253_3810)">
<g id="6824bb23284d64d2d3908669_Highlight_03%20(1).svg_2" clip-path="url(#clip2_8253_3810)">
<path id="Vector" fill-rule="evenodd" clip-rule="evenodd" d="M34.6122 19.4189C33.432 14.6377 33.5093 10.0334 33.3679 5.18375C33.3404 4.23664 34.0871 3.44923 35.0348 3.42071C35.9831 3.39218 36.7745 4.13962 36.8026 5.08673C36.9366 9.68535 36.8283 14.0614 37.9484 18.603C38.1752 19.5215 37.6111 20.4515 36.6903 20.6741C35.7701 20.9023 34.8384 20.3375 34.6122 19.4189Z" fill="#601B80"/>
<path id="Vector_2" fill-rule="evenodd" clip-rule="evenodd" d="M24.5858 28.6845C16.5793 21.3929 9.03537 12.0131 3.76257 2.54199C3.30275 1.7147 3.60225 0.670553 4.43143 0.214115C5.2606 -0.242323 6.30736 0.0543859 6.76718 0.881681C11.8659 10.039 19.1618 19.1108 26.9038 26.157C27.6036 26.7961 27.6522 27.8801 27.0126 28.5762C26.373 29.2722 25.2856 29.3235 24.5858 28.6845Z" fill="#601B80"/>
<path id="Vector_3" fill-rule="evenodd" clip-rule="evenodd" d="M22.5587 36.6495C15.2359 37.8533 7.68799 35.7994 1.02942 32.8953C0.160737 32.513 -0.235536 31.5032 0.144119 30.6416C0.524347 29.7744 1.53849 29.3807 2.40718 29.7573C8.47136 32.4046 15.3298 34.3673 21.9992 33.2719C22.9349 33.1178 23.8196 33.7511 23.9737 34.6811C24.1283 35.6111 23.4938 36.4954 22.5587 36.6495Z" fill="#601B80"/>
</g>
</g>
</g>
<defs>
<clipPath id="clip0_8253_3810">
<rect width="38" height="37" fill="white"/>
</clipPath>
<clipPath id="clip1_8253_3810">
<rect width="38" height="37" fill="white"/>
</clipPath>
<clipPath id="clip2_8253_3810">
<rect width="38" height="37" fill="white"/>
</clipPath>
</defs>
</svg>
