<svg width="56" height="56" viewBox="0 0 56 56" fill="none" xmlns="http://www.w3.org/2000/svg">
<g id="Container">
<path d="M0 10C0 4.47715 4.47715 0 10 0H46C51.5229 0 56 4.47715 56 10V46C56 51.5229 51.5228 56 46 56H10C4.47715 56 0 51.5228 0 46V10Z" fill="#1B2280"/>
<g id="Icon">
<path id="Vector" d="M28 39.6666C34.4433 39.6666 39.6667 34.4432 39.6667 27.9999C39.6667 21.5566 34.4433 16.3333 28 16.3333C21.5567 16.3333 16.3333 21.5566 16.3333 27.9999C16.3333 34.4432 21.5567 39.6666 28 39.6666Z" stroke="white" stroke-width="2.33333" stroke-linecap="round" stroke-linejoin="round"/>
<path id="Vector_2" d="M24.5 28.0001L26.8333 30.3334L31.5 25.6667" stroke="white" stroke-width="2.33333" stroke-linecap="round" stroke-linejoin="round"/>
</g>
</g>
</svg>
