<svg width="206" height="41" viewBox="0 0 206 41" fill="none" xmlns="http://www.w3.org/2000/svg">
<g id="Frame 1707481018">
<g id="Frame 1707480966">
<rect width="40.8582" height="40.8582" rx="20.4291" fill="#6A1B94"/>
<g id="ic:baseline-facebook">
<path id="Vector" d="M28.1393 20.4283C28.1393 16.1729 24.6857 12.7192 20.4302 12.7192C16.1748 12.7192 12.7211 16.1729 12.7211 20.4283C12.7211 24.1595 15.3731 27.2663 18.8884 27.9832V22.7411H17.3466V20.4283H18.8884V18.5011C18.8884 17.0132 20.0987 15.8029 21.5866 15.8029H23.5139V18.1156H21.9721C21.5481 18.1156 21.2011 18.4625 21.2011 18.8865V20.4283H23.5139V22.7411H21.2011V28.0989C25.0942 27.7134 28.1393 24.4293 28.1393 20.4283Z" fill="white"/>
</g>
</g>
<g id="Frame 1707480967">
<rect x="54.8582" width="40.8582" height="40.8582" rx="20.4291" fill="#6A1B94"/>
<g id="ri:instagram-fill">
<path id="Vector_2" d="M76.0813 12.7192C76.9485 12.7216 77.3887 12.7262 77.7688 12.737L77.9183 12.7424C78.091 12.7485 78.2614 12.7562 78.4672 12.7655C79.2875 12.804 79.8472 12.9336 80.3382 13.124C80.847 13.3198 81.2756 13.585 81.7043 14.0128C82.0964 14.3981 82.3998 14.8643 82.5931 15.3789C82.7835 15.8699 82.9131 16.4296 82.9516 17.2506C82.9609 17.4557 82.9686 17.6261 82.9747 17.7995L82.9794 17.9491C82.9909 18.3284 82.9955 18.7686 82.9971 19.6358L82.9979 20.2109V21.2208C82.9997 21.7831 82.9938 22.3454 82.9801 22.9076L82.9755 23.0571C82.9693 23.2306 82.9616 23.401 82.9524 23.606C82.9138 24.427 82.7828 24.9859 82.5931 25.4778C82.3998 25.9924 82.0964 26.4586 81.7043 26.8438C81.319 27.236 80.8528 27.5393 80.3382 27.7327C79.8472 27.9231 79.2875 28.0526 78.4672 28.0912L77.9183 28.1143L77.7688 28.1189C77.3887 28.1297 76.9485 28.1351 76.0813 28.1366L75.5062 28.1374H74.497C73.9345 28.1394 73.3719 28.1335 72.8095 28.1197L72.66 28.1151C72.477 28.1081 72.294 28.1002 72.1111 28.0912C71.2908 28.0526 70.7312 27.9231 70.2393 27.7327C69.725 27.5392 69.2591 27.2359 68.874 26.8438C68.4816 26.4587 68.178 25.9925 67.9844 25.4778C67.794 24.9867 67.6645 24.427 67.6259 23.606L67.6028 23.0571L67.599 22.9076C67.5847 22.3454 67.5783 21.7831 67.5797 21.2208V19.6358C67.5775 19.0735 67.5832 18.5112 67.5966 17.9491L67.602 17.7995C67.6082 17.6261 67.6159 17.4557 67.6252 17.2506C67.6637 16.4296 67.7932 15.8707 67.9836 15.3789C68.1777 14.8641 68.4818 14.3978 68.8748 14.0128C69.2596 13.6209 69.7253 13.3175 70.2393 13.124C70.7312 12.9336 71.2901 12.804 72.1111 12.7655C72.3161 12.7562 72.4873 12.7485 72.66 12.7424L72.8095 12.7377C73.3717 12.724 73.934 12.7181 74.4963 12.72L76.0813 12.7192ZM75.2888 16.5738C74.2665 16.5738 73.2861 16.9799 72.5632 17.7028C71.8403 18.4256 71.4342 19.406 71.4342 20.4283C71.4342 21.4506 71.8403 22.431 72.5632 23.1539C73.2861 23.8768 74.2665 24.2829 75.2888 24.2829C76.3111 24.2829 77.2915 23.8768 78.0143 23.1539C78.7372 22.431 79.1433 21.4506 79.1433 20.4283C79.1433 19.406 78.7372 18.4256 78.0143 17.7028C77.2915 16.9799 76.3111 16.5738 75.2888 16.5738ZM75.2888 18.1156C75.5925 18.1156 75.8932 18.1753 76.1738 18.2915C76.4545 18.4077 76.7094 18.578 76.9242 18.7927C77.139 19.0074 77.3094 19.2624 77.4257 19.5429C77.542 19.8235 77.6018 20.1242 77.6019 20.4279C77.6019 20.7317 77.5422 21.0324 77.426 21.313C77.3098 21.5936 77.1395 21.8486 76.9248 22.0634C76.7101 22.2782 76.4551 22.4486 76.1746 22.5649C75.894 22.6811 75.5933 22.741 75.2895 22.7411C74.6762 22.7411 74.0879 22.4974 73.6542 22.0637C73.2205 21.63 72.9768 21.0417 72.9768 20.4283C72.9768 19.815 73.2205 19.2267 73.6542 18.793C74.0879 18.3593 74.6762 18.1156 75.2895 18.1156M79.3368 15.4174C79.0812 15.4174 78.8361 15.5189 78.6554 15.6997C78.4747 15.8804 78.3732 16.1255 78.3732 16.3811C78.3732 16.6366 78.4747 16.8817 78.6554 17.0624C78.8361 17.2432 79.0812 17.3447 79.3368 17.3447C79.5924 17.3447 79.8375 17.2432 80.0182 17.0624C80.1989 16.8817 80.3004 16.6366 80.3004 16.3811C80.3004 16.1255 80.1989 15.8804 80.0182 15.6997C79.8375 15.5189 79.5924 15.4174 79.3368 15.4174Z" fill="white"/>
</g>
</g>
<g id="Frame 1707480968">
<rect x="109.716" width="40.8582" height="40.8582" rx="20.4291" fill="#6A1B94"/>
<g id="uil:linkedin">
<path id="Vector_3" d="M136.677 12.7193H123.618C123.471 12.7173 123.325 12.7442 123.189 12.7985C123.052 12.8528 122.928 12.9334 122.823 13.0358C122.718 13.1382 122.633 13.2603 122.575 13.3951C122.517 13.53 122.486 13.6749 122.484 13.8217V27.0351C122.486 27.1819 122.517 27.3269 122.575 27.4617C122.633 27.5966 122.718 27.7187 122.823 27.8211C122.928 27.9234 123.052 28.0041 123.189 28.0584C123.325 28.1127 123.471 28.1396 123.618 28.1375H136.677C136.824 28.1396 136.969 28.1127 137.106 28.0584C137.242 28.0041 137.367 27.9234 137.472 27.8211C137.577 27.7187 137.661 27.5966 137.719 27.4617C137.777 27.3269 137.808 27.1819 137.81 27.0351V13.8217C137.808 13.6749 137.777 13.53 137.719 13.3951C137.661 13.2603 137.577 13.1382 137.472 13.0358C137.367 12.9334 137.242 12.8528 137.106 12.7985C136.969 12.7442 136.824 12.7173 136.677 12.7193ZM127.133 25.6244H124.82V18.6862H127.133V25.6244ZM125.977 17.7148C125.658 17.7148 125.352 17.5881 125.126 17.3626C124.901 17.1371 124.774 16.8312 124.774 16.5122C124.774 16.1933 124.901 15.8874 125.126 15.6618C125.352 15.4363 125.658 15.3096 125.977 15.3096C126.146 15.2904 126.318 15.3072 126.48 15.3588C126.642 15.4105 126.792 15.4959 126.919 15.6095C127.046 15.723 127.148 15.8621 127.218 16.0177C127.287 16.1732 127.323 16.3418 127.323 16.5122C127.323 16.6827 127.287 16.8512 127.218 17.0068C127.148 17.1623 127.046 17.3014 126.919 17.415C126.792 17.5285 126.642 17.6139 126.48 17.6656C126.318 17.7173 126.146 17.734 125.977 17.7148ZM135.474 25.6244H133.162V21.9009C133.162 20.9681 132.83 20.3591 131.99 20.3591C131.73 20.361 131.476 20.4425 131.264 20.5928C131.052 20.743 130.891 20.9547 130.803 21.1993C130.742 21.3805 130.716 21.5714 130.725 21.7621V25.6167H128.413V18.6785H130.725V19.6575C130.936 19.293 131.241 18.9926 131.609 18.7889C131.977 18.5851 132.394 18.4856 132.815 18.5012C134.356 18.5012 135.474 19.4956 135.474 21.6311V25.6244Z" fill="white"/>
</g>
</g>
<g id="Frame 1707480969">
<rect x="164.575" width="40.8582" height="40.8582" rx="20.4291" fill="#6A1B94"/>
<g id="pajamas:twitter">
<path id="Vector_4" d="M186.499 19.1894L192.354 12.3345H190.966L185.884 18.2863L181.823 12.3345H177.139L183.28 21.3356L177.139 28.5236H178.527L183.895 22.2376L188.184 28.5236H192.867L186.499 19.1894ZM184.599 21.4142L183.977 20.5181L179.027 13.3868H181.158L185.152 19.142L185.774 20.0382L190.967 27.5198H188.836L184.599 21.4142Z" fill="white"/>
</g>
</g>
</g>
</svg>
