<svg width="62" height="62" viewBox="0 0 62 62" fill="none" xmlns="http://www.w3.org/2000/svg">
<g id="Frame 1597884930">
<rect width="61.0269" height="61.0269" rx="30.5134" fill="#5230A6"/>
<path id="O" d="M30.5222 44.0137C27.9829 44.0137 25.8198 43.4497 24.0329 42.3217C22.246 41.1817 20.8764 39.5977 19.9242 37.5697C18.9837 35.5417 18.5134 33.1897 18.5134 30.5137C18.5134 27.8377 18.9837 25.4857 19.9242 23.4577C20.8764 21.4297 22.246 19.8517 24.0329 18.7237C25.8198 17.5837 27.9829 17.0137 30.5222 17.0137C33.0498 17.0137 35.207 17.5837 36.994 18.7237C38.7926 19.8517 40.1622 21.4297 41.1027 23.4577C42.0432 25.4857 42.5134 27.8377 42.5134 30.5137C42.5134 33.1897 42.0432 35.5417 41.1027 37.5697C40.1622 39.5977 38.7926 41.1817 36.994 42.3217C35.207 43.4497 33.0498 44.0137 30.5222 44.0137ZM30.5222 40.4317C32.3209 40.4557 33.8139 40.0537 35.0013 39.2257C36.2004 38.3857 37.0998 37.2217 37.6993 35.7337C38.2989 34.2337 38.5987 32.4937 38.5987 30.5137C38.5987 28.5337 38.2989 26.8057 37.6993 25.3297C37.0998 23.8417 36.2004 22.6837 35.0013 21.8557C33.8139 21.0277 32.3209 20.6077 30.5222 20.5957C28.7236 20.5717 27.2247 20.9737 26.0256 21.8017C24.8382 22.6297 23.9447 23.7937 23.3452 25.2937C22.7456 26.7937 22.44 28.5337 22.4282 30.5137C22.4164 32.4937 22.7103 34.2277 23.3099 35.7157C23.9095 37.1917 24.8088 38.3437 26.0079 39.1717C27.2188 39.9997 28.7236 40.4197 30.5222 40.4317Z" fill="white"/>
</g>
</svg>
