<svg width="22" height="22" viewBox="0 0 22 22" fill="none" xmlns="http://www.w3.org/2000/svg">
<g id="Icon">
<path id="Vector" d="M9.10892 14.2082C9.02708 13.891 8.86173 13.6015 8.63007 13.3698C8.39841 13.1382 8.1089 12.9728 7.79167 12.891L2.16792 11.4408C2.07197 11.4136 1.98752 11.3558 1.92739 11.2762C1.86726 11.1967 1.83473 11.0996 1.83473 10.9999C1.83473 10.9002 1.86726 10.8032 1.92739 10.7236C1.98752 10.644 2.07197 10.5862 2.16792 10.559L7.79167 9.1079C8.10879 9.02614 8.39822 8.86093 8.62987 8.62944C8.86152 8.39795 9.02694 8.10863 9.10892 7.79157L10.5591 2.16782C10.586 2.07149 10.6438 1.98663 10.7235 1.92618C10.8032 1.86573 10.9004 1.83301 11.0005 1.83301C11.1005 1.83301 11.1978 1.86573 11.2775 1.92618C11.3571 1.98663 11.4149 2.07149 11.4418 2.16782L12.8911 7.79157C12.9729 8.1088 13.1383 8.39831 13.3699 8.62997C13.6016 8.86163 13.8911 9.02698 14.2083 9.10882L19.8321 10.5581C19.9288 10.5847 20.0141 10.6424 20.0749 10.7222C20.1356 10.802 20.1685 10.8996 20.1685 10.9999C20.1685 11.1002 20.1356 11.1978 20.0749 11.2776C20.0141 11.3574 19.9288 11.4151 19.8321 11.4417L14.2083 12.891C13.8911 12.9728 13.6016 13.1382 13.3699 13.3698C13.1383 13.6015 12.9729 13.891 12.8911 14.2082L11.4409 19.832C11.414 19.9283 11.3562 20.0132 11.2765 20.0736C11.1968 20.1341 11.0996 20.1668 10.9995 20.1668C10.8995 20.1668 10.8022 20.1341 10.7225 20.0736C10.6429 20.0132 10.5851 19.9283 10.5582 19.832L9.10892 14.2082Z" stroke="white" stroke-width="1.83333" stroke-linecap="round" stroke-linejoin="round"/>
<path id="Vector_2" d="M18.3333 2.75V6.41667" stroke="white" stroke-width="1.83333" stroke-linecap="round" stroke-linejoin="round"/>
<path id="Vector_3" d="M20.1667 4.5835H16.5" stroke="white" stroke-width="1.83333" stroke-linecap="round" stroke-linejoin="round"/>
<path id="Vector_4" d="M3.66667 15.5835V17.4168" stroke="white" stroke-width="1.83333" stroke-linecap="round" stroke-linejoin="round"/>
<path id="Vector_5" d="M4.58333 16.5H2.75" stroke="white" stroke-width="1.83333" stroke-linecap="round" stroke-linejoin="round"/>
</g>
</svg>
