<svg width="20" height="20" viewBox="0 0 20 20" fill="none" xmlns="http://www.w3.org/2000/svg">
<g id="solar:phone-bold-duotone">
<g id="Group 1597882608">
<path id="Vector" fill-rule="evenodd" clip-rule="evenodd" d="M12.8324 13.2801L13.2781 12.8373C13.8939 12.2254 14.8528 12.0993 15.6407 12.5274L17.5077 13.543C18.7071 14.195 18.972 15.7932 18.0346 16.7248L16.6466 18.105C16.2927 18.4569 15.8548 18.713 15.3504 18.7599C14.1852 18.8684 11.7874 18.8098 8.95856 17.1539L12.8324 13.2801ZM7.05537 7.53634L7.33591 7.25678C8.027 6.57058 8.09249 5.46796 7.48938 4.66251L6.25774 3.01738C5.51093 2.02034 4.06913 1.88838 3.21382 2.7388L1.67915 4.26369C1.2559 4.68597 0.972425 5.23141 1.00664 5.83745C1.07017 6.9518 1.44944 8.98499 3.10727 11.4835L7.05537 7.53634Z" fill="white"/>
<path id="Vector_2" opacity="0.6" d="M8.88832 11.4598C6.00862 8.59672 7.05063 7.542 7.05748 7.53516L3.10938 11.4842C3.76136 12.4656 4.60983 13.5184 5.71342 14.6161C6.82776 15.7246 7.92256 16.5467 8.96066 17.1537L12.8345 13.2809C12.8345 13.2809 11.7768 14.3327 8.88832 11.4608" fill="white"/>
</g>
</g>
</svg>
