<svg width="117" height="27" viewBox="0 0 117 27" fill="none" xmlns="http://www.w3.org/2000/svg">
<g id="Frame 1597884924">
<path id="Heading 4 &#226;&#134;&#146; (4.8/5)" d="M5.67 21.3C4.93 21.3 4.24 21.15 3.6 20.85C2.96667 20.5433 2.42333 20.1233 1.97 19.59C1.51667 19.05 1.19333 18.43 1 17.73L3.01 17.19C3.12333 17.6167 3.31667 17.9867 3.59 18.3C3.87 18.6133 4.19667 18.8567 4.57 19.03C4.94333 19.1967 5.33 19.28 5.73 19.28C6.25667 19.28 6.73333 19.1533 7.16 18.9C7.59333 18.6467 7.93333 18.3067 8.18 17.88C8.43333 17.4533 8.56 16.9833 8.56 16.47C8.56 15.9433 8.43 15.4667 8.17 15.04C7.91667 14.6133 7.57333 14.2767 7.14 14.03C6.71333 13.7767 6.24333 13.65 5.73 13.65C5.14333 13.65 4.64667 13.7667 4.24 14C3.83333 14.2333 3.51667 14.5033 3.29 14.81L1.47 14.17L1.91 6.6H9.68V8.57H2.98L3.83 7.78L3.48 13.45L3.07 12.92C3.45 12.54 3.90333 12.25 4.43 12.05C4.95667 11.85 5.48 11.75 6 11.75C6.89333 11.75 7.69 11.9567 8.39 12.37C9.09667 12.7833 9.65333 13.3467 10.06 14.06C10.4667 14.7667 10.67 15.57 10.67 16.47C10.67 17.3633 10.44 18.1767 9.98 18.91C9.52 19.6367 8.91 20.2167 8.15 20.65C7.39 21.0833 6.56333 21.3 5.67 21.3ZM13.4202 21V18.79H15.6302V21H13.4202ZM23.8028 21.3C22.8228 21.3 21.9561 21.0867 21.2028 20.66C20.4495 20.2267 19.8561 19.6333 19.4228 18.88C18.9961 18.1267 18.7828 17.26 18.7828 16.28V11.32C18.7828 10.34 18.9961 9.47333 19.4228 8.72C19.8561 7.96667 20.4495 7.37667 21.2028 6.95C21.9561 6.51667 22.8228 6.3 23.8028 6.3C24.7828 6.3 25.6495 6.51667 26.4028 6.95C27.1561 7.37667 27.7461 7.96667 28.1728 8.72C28.6061 9.47333 28.8228 10.34 28.8228 11.32V16.28C28.8228 17.26 28.6061 18.1267 28.1728 18.88C27.7461 19.6333 27.1561 20.2267 26.4028 20.66C25.6495 21.0867 24.7828 21.3 23.8028 21.3ZM23.8028 19.3C24.3361 19.3 24.8195 19.1733 25.2528 18.92C25.6928 18.66 26.0428 18.3133 26.3028 17.88C26.5628 17.44 26.6928 16.95 26.6928 16.41V11.17C26.6928 10.6367 26.5628 10.1533 26.3028 9.72C26.0428 9.28 25.6928 8.93333 25.2528 8.68C24.8195 8.42 24.3361 8.29 23.8028 8.29C23.2695 8.29 22.7828 8.42 22.3428 8.68C21.9095 8.93333 21.5628 9.28 21.3028 9.72C21.0428 10.1533 20.9128 10.6367 20.9128 11.17V16.41C20.9128 16.95 21.0428 17.44 21.3028 17.88C21.5628 18.3133 21.9095 18.66 22.3428 18.92C22.7828 19.1733 23.2695 19.3 23.8028 19.3Z" fill="#F98F28"/>
<g id="Frame 1597884923">
<g id="Icon" clip-path="url(#clip0_8253_4307)">
<path id="Vector" d="M40.5787 7.45685C40.731 7.15217 40.9764 6.99982 41.315 6.99982C41.6535 6.99982 41.899 7.15217 42.0513 7.45685L43.7017 10.8084L47.4087 11.367C47.7473 11.4009 47.9673 11.5786 48.0689 11.9002C48.1705 12.2218 48.1028 12.5011 47.8658 12.7381L45.1744 15.3533L45.8091 19.0604C45.8599 19.382 45.7499 19.6401 45.4791 19.8348C45.2082 20.0294 44.9289 20.0506 44.6412 19.8983L41.315 18.1717L37.9888 19.8983C37.7011 20.0675 37.4218 20.0506 37.1509 19.8475C36.8801 19.6444 36.7701 19.382 36.8208 19.0604L37.4556 15.3533L34.7642 12.7381C34.5272 12.5011 34.4595 12.2218 34.5611 11.9002C34.6626 11.5786 34.8827 11.4009 35.2212 11.367L38.9283 10.8084L40.5787 7.45685Z" fill="#F98F28"/>
</g>
<g id="Icon_2" clip-path="url(#clip1_8253_4307)">
<path id="Vector_2" d="M57.204 7.45685C57.3563 7.15217 57.6016 6.99982 57.9399 6.99982C58.2783 6.99982 58.5236 7.15217 58.6758 7.45685L60.3252 10.8084L64.03 11.367C64.3684 11.4009 64.5883 11.5786 64.6898 11.9002C64.7913 12.2218 64.7236 12.5011 64.4868 12.7381L61.797 15.3533L62.4314 19.0604C62.4821 19.382 62.3722 19.6401 62.1015 19.8348C61.8308 20.0294 61.5517 20.0506 61.2641 19.8983L57.9399 18.1717L54.6158 19.8983C54.3282 20.0675 54.049 20.0506 53.7784 19.8475C53.5077 19.6444 53.3977 19.382 53.4485 19.0604L54.0829 15.3533L51.3931 12.7381C51.1563 12.5011 51.0886 12.2218 51.1901 11.9002C51.2916 11.5786 51.5115 11.4009 51.8498 11.367L55.5546 10.8084L57.204 7.45685Z" fill="#F98F28"/>
</g>
<g id="Icon_3" clip-path="url(#clip2_8253_4307)">
<path id="Vector_3" d="M73.8287 7.45685C73.981 7.15217 74.2264 6.99982 74.565 6.99982C74.9035 6.99982 75.149 7.15217 75.3013 7.45685L76.9517 10.8084L80.6587 11.367C80.9973 11.4009 81.2173 11.5786 81.3189 11.9002C81.4205 12.2218 81.3528 12.5011 81.1158 12.7381L78.4244 15.3533L79.0591 19.0604C79.1099 19.382 78.9999 19.6401 78.7291 19.8348C78.4582 20.0294 78.1789 20.0506 77.8912 19.8983L74.565 18.1717L71.2388 19.8983C70.9511 20.0675 70.6718 20.0506 70.4009 19.8475C70.1301 19.6444 70.0201 19.382 70.0708 19.0604L70.7056 15.3533L68.0142 12.7381C67.7772 12.5011 67.7095 12.2218 67.8111 11.9002C67.9126 11.5786 68.1327 11.4009 68.4712 11.367L72.1783 10.8084L73.8287 7.45685Z" fill="#F98F28"/>
</g>
<g id="Icon_4" clip-path="url(#clip3_8253_4307)">
<path id="Vector_4" d="M90.454 7.45685C90.6063 7.15217 90.8516 6.99982 91.1899 6.99982C91.5283 6.99982 91.7736 7.15217 91.9258 7.45685L93.5752 10.8084L97.28 11.367C97.6184 11.4009 97.8383 11.5786 97.9398 11.9002C98.0413 12.2218 97.9736 12.5011 97.7368 12.7381L95.047 15.3533L95.6814 19.0604C95.7321 19.382 95.6222 19.6401 95.3515 19.8348C95.0808 20.0294 94.8017 20.0506 94.5141 19.8983L91.1899 18.1717L87.8658 19.8983C87.5782 20.0675 87.299 20.0506 87.0284 19.8475C86.7577 19.6444 86.6477 19.382 86.6985 19.0604L87.3329 15.3533L84.6431 12.7381C84.4063 12.5011 84.3386 12.2218 84.4401 11.9002C84.5416 11.5786 84.7615 11.4009 85.0998 11.367L88.8046 10.8084L90.454 7.45685Z" fill="#F98F28"/>
</g>
<g id="Icon_5" clip-path="url(#clip4_8253_4307)">
<path id="Vector_5" d="M107.079 7.45685C107.231 7.15217 107.476 6.99982 107.815 6.99982C108.154 6.99982 108.399 7.15217 108.551 7.45685L110.202 10.8084L113.909 11.367C114.247 11.4009 114.467 11.5786 114.569 11.9002C114.67 12.2218 114.603 12.5011 114.366 12.7381L111.674 15.3533L112.309 19.0604C112.36 19.382 112.25 19.6401 111.979 19.8348C111.708 20.0294 111.429 20.0506 111.141 19.8983L107.815 18.1717L104.489 19.8983C104.201 20.0675 103.922 20.0506 103.651 19.8475C103.38 19.6444 103.27 19.382 103.321 19.0604L103.956 15.3533L101.264 12.7381C101.027 12.5011 100.96 12.2218 101.061 11.9002C101.163 11.5786 101.383 11.4009 101.721 11.367L105.428 10.8084L107.079 7.45685Z" fill="#F98F28"/>
</g>
</g>
</g>
<defs>
<clipPath id="clip0_8253_4307">
<rect width="16.63" height="13" fill="white" transform="matrix(1 0 0 -1 33 20)"/>
</clipPath>
<clipPath id="clip1_8253_4307">
<rect width="16.62" height="13" fill="white" transform="matrix(1 0 0 -1 49.6299 20)"/>
</clipPath>
<clipPath id="clip2_8253_4307">
<rect width="16.63" height="13" fill="white" transform="matrix(1 0 0 -1 66.25 20)"/>
</clipPath>
<clipPath id="clip3_8253_4307">
<rect width="16.62" height="13" fill="white" transform="matrix(1 0 0 -1 82.8799 20)"/>
</clipPath>
<clipPath id="clip4_8253_4307">
<rect width="16.63" height="13" fill="white" transform="matrix(1 0 0 -1 99.5 20)"/>
</clipPath>
</defs>
</svg>
