<svg width="64" height="64" viewBox="0 0 64 64" fill="none" xmlns="http://www.w3.org/2000/svg">
<g id="Container">
<path d="M0 32C0 14.3269 14.3269 0 32 0C49.6731 0 64 14.3269 64 32C64 49.6731 49.6731 64 32 64C14.3269 64 0 49.6731 0 32Z" fill="url(#paint0_linear_8420_912)"/>
<g id="Icon">
<path id="Vector" d="M45.3339 38.5614V42.5614C45.3354 42.9328 45.2593 43.3003 45.1106 43.6406C44.9618 43.9808 44.7436 44.2862 44.47 44.5373C44.1964 44.7883 43.8733 44.9794 43.5216 45.0984C43.1698 45.2173 42.7971 45.2615 42.4272 45.2281C38.3243 44.7823 34.3832 43.3803 30.9206 41.1348C27.699 39.0877 24.9677 36.3563 22.9206 33.1348C20.6672 29.6564 19.2649 25.6961 18.8272 21.5748C18.7939 21.2061 18.8377 20.8344 18.9559 20.4836C19.0741 20.1327 19.264 19.8104 19.5136 19.5369C19.7632 19.2635 20.067 19.045 20.4056 18.8955C20.7443 18.7459 21.1103 18.6684 21.4806 18.6681H25.4806C26.1276 18.6617 26.755 18.8909 27.2456 19.3128C27.7362 19.7347 28.0567 20.3207 28.1472 20.9614C28.3161 22.2415 28.6292 23.4984 29.0806 24.7081C29.26 25.1853 29.2988 25.704 29.1924 26.2026C29.0861 26.7012 28.839 27.1589 28.4806 27.5214L26.7872 29.2148C28.6853 32.5528 31.4492 35.3167 34.7872 37.2148L36.4806 35.5214C36.8431 35.1629 37.3008 34.9159 37.7994 34.8096C38.298 34.7032 38.8167 34.742 39.2939 34.9214C40.5036 35.3728 41.7605 35.6859 43.0406 35.8548C43.6883 35.9461 44.2798 36.2724 44.7026 36.7714C45.1254 37.2705 45.3501 37.9075 45.3339 38.5614Z" stroke="white" stroke-width="2.66667" stroke-linecap="round" stroke-linejoin="round"/>
</g>
</g>
<defs>
<linearGradient id="paint0_linear_8420_912" x1="0" y1="0" x2="64" y2="64" gradientUnits="userSpaceOnUse">
<stop stop-color="#1B2280"/>
<stop offset="0.0714286" stop-color="#222280"/>
<stop offset="0.142857" stop-color="#282380"/>
<stop offset="0.214286" stop-color="#2D2380"/>
<stop offset="0.285714" stop-color="#322380"/>
<stop offset="0.357143" stop-color="#372380"/>
<stop offset="0.428571" stop-color="#3C2280"/>
<stop offset="0.5" stop-color="#412280"/>
<stop offset="0.571429" stop-color="#452180"/>
<stop offset="0.642857" stop-color="#4A2180"/>
<stop offset="0.714286" stop-color="#4E2080"/>
<stop offset="0.785714" stop-color="#531F80"/>
<stop offset="0.857143" stop-color="#571E80"/>
<stop offset="0.928571" stop-color="#5C1D80"/>
<stop offset="1" stop-color="#601B80"/>
</linearGradient>
</defs>
</svg>
