<svg width="60" height="60" viewBox="0 0 60 60" fill="none" xmlns="http://www.w3.org/2000/svg">
<g id="Container">
<path d="M0 12C0 5.37258 5.37258 0 12 0H48C54.6274 0 60 5.37258 60 12V48C60 54.6274 54.6274 60 48 60H12C5.37258 60 0 54.6274 0 48V12Z" fill="url(#paint0_linear_8420_835)"/>
<g id="Icon">
<path id="Vector" d="M35 41.25V38.75C35 37.4239 34.4732 36.1521 33.5355 35.2145C32.5979 34.2768 31.3261 33.75 30 33.75H22.5C21.1739 33.75 19.9021 34.2768 18.9645 35.2145C18.0268 36.1521 17.5 37.4239 17.5 38.75V41.25" stroke="white" stroke-width="2.5" stroke-linecap="round" stroke-linejoin="round"/>
<path id="Vector_2" d="M26.25 28.75C29.0114 28.75 31.25 26.5114 31.25 23.75C31.25 20.9886 29.0114 18.75 26.25 18.75C23.4886 18.75 21.25 20.9886 21.25 23.75C21.25 26.5114 23.4886 28.75 26.25 28.75Z" stroke="white" stroke-width="2.5" stroke-linecap="round" stroke-linejoin="round"/>
<path id="Vector_3" d="M42.5 41.2496V38.7496C42.4992 37.6418 42.1304 36.5656 41.4517 35.69C40.773 34.8144 39.8227 34.1891 38.75 33.9121" stroke="white" stroke-width="2.5" stroke-linecap="round" stroke-linejoin="round"/>
<path id="Vector_4" d="M35 18.9121C36.0755 19.1875 37.0288 19.813 37.7095 20.69C38.3903 21.567 38.7598 22.6456 38.7598 23.7559C38.7598 24.8661 38.3903 25.9447 37.7095 26.8217C37.0288 27.6987 36.0755 28.3242 35 28.5996" stroke="white" stroke-width="2.5" stroke-linecap="round" stroke-linejoin="round"/>
</g>
</g>
<defs>
<linearGradient id="paint0_linear_8420_835" x1="0" y1="0" x2="60" y2="60" gradientUnits="userSpaceOnUse">
<stop stop-color="#1B2280"/>
<stop offset="0.0714286" stop-color="#222280"/>
<stop offset="0.142857" stop-color="#282380"/>
<stop offset="0.214286" stop-color="#2D2380"/>
<stop offset="0.285714" stop-color="#322380"/>
<stop offset="0.357143" stop-color="#372380"/>
<stop offset="0.428571" stop-color="#3C2280"/>
<stop offset="0.5" stop-color="#412280"/>
<stop offset="0.571429" stop-color="#452180"/>
<stop offset="0.642857" stop-color="#4A2180"/>
<stop offset="0.714286" stop-color="#4E2080"/>
<stop offset="0.785714" stop-color="#531F80"/>
<stop offset="0.857143" stop-color="#571E80"/>
<stop offset="0.928571" stop-color="#5C1D80"/>
<stop offset="1" stop-color="#601B80"/>
</linearGradient>
</defs>
</svg>
